<svg width="90" height="90" viewBox="0 0 90 90" fill="none" xmlns="http://www.w3.org/2000/svg">
<path d="M21.15 63.465L18.4875 66.1156C17.7891 66.815 17.397 67.7612 17.397 68.7475C17.397 69.7338 17.7891 70.68 18.4875 71.3794C19.1901 72.0747 20.1406 72.465 21.1312 72.465C22.1219 72.465 23.0724 72.0747 23.775 71.3794L26.4375 68.7288C27.0518 68.0147 27.3729 67.096 27.3364 66.1564C27.3 65.2169 26.9087 64.3256 26.2409 63.6607C25.573 62.9959 24.6777 62.6064 23.7339 62.5701C22.7902 62.5338 21.8674 62.8534 21.15 63.465ZM18.75 44.7988C18.75 43.8087 18.3549 42.8591 17.6516 42.159C16.9484 41.4589 15.9946 41.0656 15 41.0656H11.25C10.2554 41.0656 9.30161 41.4589 8.59835 42.159C7.89509 42.8591 7.5 43.8087 7.5 44.7988C7.5 45.7889 7.89509 46.7385 8.59835 47.4386C9.30161 48.1387 10.2554 48.532 11.25 48.532H15C15.9946 48.532 16.9484 48.1387 17.6516 47.4386C18.3549 46.7385 18.75 45.7889 18.75 44.7988ZM45 18.6662C45.9946 18.6662 46.9484 18.2728 47.6516 17.5727C48.3549 16.8726 48.75 15.923 48.75 14.9329V11.1997C48.75 10.2096 48.3549 9.26002 47.6516 8.5599C46.9484 7.85978 45.9946 7.46646 45 7.46646C44.0054 7.46646 43.0516 7.85978 42.3483 8.5599C41.6451 9.26002 41.25 10.2096 41.25 11.1997V14.9329C41.25 15.923 41.6451 16.8726 42.3483 17.5727C43.0516 18.2728 44.0054 18.6662 45 18.6662ZM21.15 26.3193C21.8485 27.009 22.7912 27.3978 23.775 27.4019C24.2685 27.4048 24.7578 27.3106 25.2146 27.1248C25.6715 26.939 26.0871 26.6653 26.4375 26.3193C27.1359 25.6198 27.528 24.6736 27.528 23.6874C27.528 22.7011 27.1359 21.7549 26.4375 21.0554L23.775 18.4048C23.0576 17.7932 22.1348 17.4736 21.191 17.5099C20.2473 17.5462 19.352 17.9357 18.6841 18.6006C18.0163 19.2655 17.625 20.1567 17.5886 21.0963C17.5521 22.0359 17.8731 22.9545 18.4875 23.6687L21.15 26.3193ZM66.15 27.4019C67.1338 27.3978 68.0765 27.009 68.775 26.3193L71.4375 23.6687C71.83 23.334 72.1489 22.9222 72.374 22.459C72.5991 21.9959 72.7255 21.4914 72.7455 20.9772C72.7654 20.4631 72.6784 19.9504 72.4899 19.4713C72.3014 18.9923 72.0154 18.5572 71.6499 18.1933C71.2845 17.8295 70.8474 17.5448 70.3662 17.3572C69.885 17.1695 69.37 17.0828 68.8535 17.1027C68.3371 17.1225 67.8303 17.2485 67.3651 17.4726C66.8999 17.6966 66.4862 18.014 66.15 18.4048L63.75 21.0554C63.0516 21.7549 62.6595 22.7011 62.6595 23.6874C62.6595 24.6736 63.0516 25.6198 63.75 26.3193C64.4111 26.974 65.2935 27.3599 66.225 27.4019H66.15ZM78.75 41.0656H75C74.0054 41.0656 73.0516 41.4589 72.3483 42.159C71.6451 42.8591 71.25 43.8087 71.25 44.7988C71.25 45.7889 71.6451 46.7385 72.3483 47.4386C73.0516 48.1387 74.0054 48.532 75 48.532H78.75C79.7446 48.532 80.6984 48.1387 81.4016 47.4386C82.1049 46.7385 82.5 45.7889 82.5 44.7988C82.5 43.8087 82.1049 42.8591 81.4016 42.159C80.6984 41.4589 79.7446 41.0656 78.75 41.0656ZM45 70.9314C44.0054 70.9314 43.0516 71.3248 42.3483 72.0249C41.6451 72.725 41.25 73.6746 41.25 74.6647V78.3979C41.25 79.388 41.6451 80.3376 42.3483 81.0377C43.0516 81.7378 44.0054 82.1311 45 82.1311C45.9946 82.1311 46.9484 81.7378 47.6516 81.0377C48.3549 80.3376 48.75 79.388 48.75 78.3979V74.6647C48.75 73.6746 48.3549 72.725 47.6516 72.0249C46.9484 71.3248 45.9946 70.9314 45 70.9314ZM68.85 63.465C68.1375 63.0705 67.3154 62.9178 66.508 63.0302C65.7006 63.1425 64.952 63.5138 64.3755 64.0877C63.799 64.6616 63.4261 65.4068 63.3133 66.2106C63.2004 67.0144 63.3537 67.8329 63.75 68.5422L66.4125 71.1928C67.1151 71.8881 68.0655 72.2784 69.0562 72.2784C70.0469 72.2784 70.9974 71.8881 71.7 71.1928C72.3984 70.4933 72.7905 69.5471 72.7905 68.5608C72.7905 67.5746 72.3984 66.6284 71.7 65.9289L68.85 63.465ZM45 24.266C40.9208 24.266 36.9331 25.4702 33.5414 27.7264C30.1496 29.9826 27.506 33.1894 25.945 36.9412C24.3839 40.6931 23.9755 44.8216 24.7713 48.8045C25.5671 52.7875 27.5315 56.4461 30.4159 59.3177C33.3004 62.1892 36.9754 64.1448 40.9763 64.9371C44.9771 65.7293 49.1241 65.3227 52.8928 63.7686C56.6616 62.2145 59.8827 59.5828 62.1491 56.2062C64.4154 52.8296 65.625 48.8598 65.625 44.7988C65.6151 39.3562 63.4389 34.1393 59.5731 30.2908C55.7073 26.4423 50.467 24.2759 45 24.266ZM45 57.8651C42.4041 57.8651 39.8665 57.0988 37.7081 55.663C35.5497 54.2273 33.8675 52.1866 32.8741 49.7991C31.8807 47.4115 31.6208 44.7843 32.1272 42.2497C32.6336 39.7151 33.8837 37.3869 35.7192 35.5595C37.5548 33.7322 39.8934 32.4877 42.4394 31.9835C44.9854 31.4794 47.6244 31.7381 50.0227 32.7271C52.421 33.7161 54.4708 35.3908 55.913 37.5395C57.3552 39.6883 58.125 42.2145 58.125 44.7988C58.125 48.2642 56.7422 51.5877 54.2808 54.0381C51.8194 56.4885 48.481 57.8651 45 57.8651Z" fill="#EEA049"/>
</svg>
